<?xml version="1.0" encoding="UTF-8"?>
<svg xmlns="http://www.w3.org/2000/svg" viewBox="0 0 24 24" fill="#eabb00">
  <path d="M5.663 23.502c-.37-.001-.73-.12-1.027-.34A1.72 1.72 0 0 1 4 21.208l2.028-6.241L.72 11.11a1.748 1.748 0 0 1 1.028-3.162H8.31l2.028-6.24a.75.75 0 0 1 1.427.462L9.569 8.93a.75.75 0 0 1-.714.518H1.748a.248.248 0 0 0-.146.449l5.75 4.177c.263.19.373.529.272.838l-2.196 6.76a.247.247 0 0 0 .381.277l5.75-4.178a.75.75 0 0 1 .882 1.213l-5.75 4.178c-.298.22-.657.339-1.028.34" /><path d="M18.337 23.502c-.37-.001-.73-.12-1.028-.34l-5.75-4.178a.75.75 0 0 1 .882-1.213l5.75 4.178a.235.235 0 0 0 .291 0 .23.23 0 0 0 .09-.277l-2.196-6.76a.75.75 0 0 1 .272-.838l5.75-4.177a.248.248 0 0 0-.146-.449h-7.107a.75.75 0 0 1-.714-.518l-2.196-6.76c-.092-.282-.378-.282-.47 0a.75.75 0 0 1-1.427-.463 1.748 1.748 0 0 1 3.324 0l2.028 6.24h6.562a1.748 1.748 0 0 1 1.028 3.163l-5.309 3.857L20 21.209a1.72 1.72 0 0 1-.635 1.953c-.297.22-.657.339-1.027.34" />
</svg>
