<svg viewBox="0 0 24 24" width="1em" height="1em" fill="currentColor" class="zds-icon RC794g X9n9TI DlJ4rT _5Yd-hZ nXkCf3 HlZ_Tf I_qHp3" focusable="false" aria-hidden="true"><path d="M12.023.498a1.75 1.75 0 0 0-1.685 1.209l-2.03 6.24H1.747A1.748 1.748 0 0 0 .721 11.11l5.308 3.858-2.027 6.242c-.244.72.016 1.514.637 1.953.297.22.656.339 1.025.34.37-.002.728-.12 1.025-.34L12 19.305l5.31 3.857c.298.22.656.338 1.026.34.37-.001.728-.12 1.025-.34.621-.439.88-1.233.637-1.953l-2.027-6.242 5.308-3.858a1.747 1.747 0 0 0-1.025-3.162H15.69l-2.029-6.24A1.75 1.75 0 0 0 12.023.498"></path></svg>
