<?xml version="1.0" encoding="UTF-8"?>
<svg xmlns="http://www.w3.org/2000/svg" viewBox="0 0 24 24">
  <path d="M22.252 7.45H15.69l-2.028-6.242a1.748 1.748 0 0 0-3.324 0L8.31 7.45H1.748A1.748 1.748 0 0 0 .72 10.611l5.309 3.857-2.028 6.241c-.243.72.015 1.514.635 1.954.297.22.657.339 1.027.34.37-.001.73-.12 1.028-.34l5.31-3.858 5.308 3.858c.298.22.658.339 1.028.34.37-.001.73-.12 1.027-.34A1.72 1.72 0 0 0 20 20.71l-2.028-6.242 5.309-3.857a1.748 1.748 0 0 0-1.028-3.162m.146 1.948-5.75 4.177a.75.75 0 0 0-.272.838l2.196 6.76a.23.23 0 0 1-.09.277.235.235 0 0 1-.291 0l-5.75-4.178c-.009-.006-.02-.007-.029-.013-.047-.032-.099-.05-.151-.07-.039-.013-.075-.033-.115-.04-.048-.01-.097-.007-.146-.007V1.459c.094 0 .189.071.235.212l2.196 6.76c.1.31.389.518.714.518h7.107a.248.248 0 0 1 .146.449"></path>
</svg>
