 <svg width="40" height="40" viewBox="0 0 40 40" fill="none" xmlns="http://www.w3.org/2000/svg">
<path d="M6.242 31.608C10.4388 29.2358 15.1792 27.9927 20 28C25 28 29.694 29.31 33.758 31.608M26 16C26 17.5913 25.3679 19.1174 24.2426 20.2426C23.1174 21.3679 21.5913 22 20 22C18.4087 22 16.8826 21.3679 15.7574 20.2426C14.6321 19.1174 14 17.5913 14 16C14 14.4087 14.6321 12.8826 15.7574 11.7574C16.8826 10.6321 18.4087 10 20 10C21.5913 10 23.1174 10.6321 24.2426 11.7574C25.3679 12.8826 26 14.4087 26 16ZM38 20C38 22.3638 37.5344 24.7044 36.6298 26.8883C35.7252 29.0722 34.3994 31.0565 32.7279 32.7279C31.0565 34.3994 29.0722 35.7252 26.8883 36.6298C24.7044 37.5344 22.3638 38 20 38C17.6362 38 15.2956 37.5344 13.1117 36.6298C10.9278 35.7252 8.94353 34.3994 7.27208 32.7279C5.60062 31.0565 4.27475 29.0722 3.37017 26.8883C2.46558 24.7044 2 22.3638 2 20C2 15.2261 3.89642 10.6477 7.27208 7.27208C10.6477 3.89642 15.2261 2 20 2C24.7739 2 29.3523 3.89642 32.7279 7.27208C36.1036 10.6477 38 15.2261 38 20Z" stroke="#F4FAFF" stroke-width="4" stroke-linecap="round" stroke-linejoin="round"/>
</svg>
